<?xml version="1.0" encoding="UTF-8" standalone="no"?>
<svg
   xmlns:dc="http://purl.org/dc/elements/1.1/"
   xmlns:cc="http://creativecommons.org/ns#"
   xmlns:rdf="http://www.w3.org/1999/02/22-rdf-syntax-ns#"
   xmlns:svg="http://www.w3.org/2000/svg"
   xmlns="http://www.w3.org/2000/svg"
   xmlns:sodipodi="http://sodipodi.sourceforge.net/DTD/sodipodi-0.dtd"
   xmlns:inkscape="http://www.inkscape.org/namespaces/inkscape"
   width="103.49777mm"
   height="98.805405mm"
   viewBox="0 0 103.49777 98.805405"
   version="1.1"
   id="svg8"
   sodipodi:docname="MayTree.svg"
   inkscape:version="1.0.1 (3bc2e813f5, 2020-09-07)">
  <defs
     id="defs2" />
  <sodipodi:namedview
     id="base"
     pagecolor="#489fb5"
     bordercolor="#666666"
     borderopacity="1.0"
     inkscape:pageopacity="1"
     inkscape:pageshadow="2"
     inkscape:zoom="1.63"
     inkscape:cx="109.07033"
     inkscape:cy="160.07162"
     inkscape:document-units="mm"
     inkscape:current-layer="layer1"
     inkscape:document-rotation="0"
     showgrid="false"
     inkscape:window-width="1342"
     inkscape:window-height="725"
     inkscape:window-x="10"
     inkscape:window-y="10"
     inkscape:window-maximized="0"
     showguides="true"
     inkscape:guide-bbox="true">
    <sodipodi:guide
       position="67.081696,97.91016"
       orientation="0,-1"
       id="guide873" />
  </sodipodi:namedview>
  <metadata
     id="metadata5">
    <rdf:RDF>
      <cc:Work
         rdf:about="">
        <dc:format>image/svg+xml</dc:format>
        <dc:type
           rdf:resource="http://purl.org/dc/dcmitype/StillImage" />
        <dc:title></dc:title>
      </cc:Work>
    </rdf:RDF>
  </metadata>
  <g
     inkscape:label="Layer 1"
     inkscape:groupmode="layer"
     id="layer1"
     transform="translate(-51.412674,-92.764005)">
    <path
       style="fill:#4a3b30;fill-opacity:1;stroke:#000000;stroke-width:0.065;stroke-linecap:butt;stroke-linejoin:miter;stroke-miterlimit:4;stroke-dasharray:none;stroke-opacity:1"
       d="m 151.6521,191.53675 c 0,0 -43.71006,-47.08636 -98.776515,-0.20848 z"
       id="path20"
       sodipodi:nodetypes="cc" />
    <path
       style="fill:#826754;fill-opacity:1;stroke:#000000;stroke-width:0.1;stroke-linecap:butt;stroke-linejoin:miter;stroke-miterlimit:4;stroke-dasharray:none;stroke-opacity:1"
       d="m 102.30117,175.52565 c -7.70928,2.82557 -15.057815,4.72337 -15.057815,4.72337 0,0 10.980793,-4.8601 11.84375,-7.59933 0.862957,-2.73923 2.145405,-13.6378 1.679105,-16.15027 -0.4663,-2.51248 -4.75967,-13.77485 -10.797107,-14.81949 -6.037434,-1.04463 -16.851459,-4.20023 -19.453906,-4.5398 -2.602447,-0.33956 -11.083586,-4.39209 -11.083586,-4.39209 0,0 5.080063,1.81072 8.80346,2.42031 3.723399,0.60958 14.488831,2.31959 18.879662,3.49518 4.390835,1.17558 -8.645821,-7.9119 -15.695088,-10.08589 -7.049267,-2.174 -7.321026,-4.39567 -7.732993,-5.5906 -0.411966,-1.19493 -0.987641,-4.62634 -0.987641,-4.62634 0,0 0.769244,2.99855 2.087247,4.38839 1.318003,1.38983 2.692185,3.52937 7.547766,4.72715 4.855583,1.19778 15.839786,5.47575 20.427733,8.88356 4.587946,3.4078 9.355523,7.45393 9.287943,5.5781 -0.0676,-1.87583 -3.039548,-12.37114 -6.77322,-15.59052 -3.514578,-3.03047 -12.64886,-10.63198 -17.151894,-12.08178 -4.365144,-1.40541 -8.772572,-4.36375 -8.772572,-4.36375 l 5.335275,1.61753 c 0,0 9.205118,2.28422 12.952886,5.14299 0.928358,0.70815 5.39314,4.01894 9.03851,6.39561 1.85321,1.20823 -1.565401,-11.1548 -2.210496,-18.01008 -0.543211,-5.772582 0.02199,-7.943636 0.02199,-7.943636 0,0 8.018921,33.626656 9.891231,35.555336 2.46763,2.54192 2.856,-11.45031 2.99587,-17.52 0.0839,-3.63917 -0.008,-3.83734 0.79605,-9.58425 0.5796,-4.14098 0.54253,-6.791761 0.83505,-7.491905 0,0 1.78768,2.105185 1.40354,7.369165 -0.18798,2.57599 0.83753,25.58282 2.36451,23.71328 0.31982,-0.39157 3.03352,-7.64142 5.76697,-12.68189 1.93203,-3.56265 2.06853,-7.19515 4.65621,-9.63804 l 4.62749,-4.36856 c 0,0 -5.49024,9.92865 -5.57732,11.83271 -0.0993,2.17044 3.67281,-4.52789 9.10919,-6.90859 3.25497,-1.42542 5.25093,-1.78603 5.25093,-1.78603 0,0 -3.28864,1.51755 -6.51997,5.5392 -3.23133,4.02164 -7.62477,8.37825 -9.73362,12.65697 -2.10885,4.27872 -6.73261,12.04034 -7.87,14.22282 -1.13739,2.18248 4.3777,3.41294 5.76856,1.9366 3.42058,-3.63081 3.14875,-2.99205 8.63185,-8.4883 5.48311,-5.49626 8.93923,-9.9554 8.93923,-9.9554 0,0 -1.10947,4.85218 -5.32161,10.5298 -4.21215,5.67763 -7.86609,8.40281 -6.22579,7.85211 6.56121,-2.20279 14.25307,-8.06147 15.46147,-8.78316 1.20839,-0.72169 6.22531,-2.41967 6.22531,-2.41967 0,0 -2.70438,2.84382 -8.00482,6.16569 -1.08206,0.67814 -2.17189,1.28688 -6.16621,4.63989 -3.99431,3.35301 -6.1024,3.79304 -11.0835,6.63401 -4.98109,2.84097 -8.22046,1.48799 -9.00226,7.02215 -0.7818,5.53416 -1.60131,6.93301 -1.02879,11.28343 0.57252,4.35041 0.5502,10.99431 3.94112,11.89613 3.39093,0.90181 8.92429,2.47039 8.92429,2.47039 0,0 -11.76455,-1.88101 -13.94889,-2.5786 -2.18435,-0.69758 -7.2951,-0.6939 -7.2951,-0.6939 z"
       id="path22"
       sodipodi:nodetypes="ccsssscsssscssssssccssscssscsssscsscssssscssscsssssscsc" />
    <path
       style="fill:#eb6534;fill-opacity:1;stroke:#000000;stroke-width:0.065;stroke-linecap:butt;stroke-linejoin:miter;stroke-miterlimit:4;stroke-dasharray:none;stroke-opacity:1"
       d="m 117.44201,106.67157 c 0.32688,-4.40968 0.61608,-8.874953 2.41315,-8.439943 3.532,0.85498 6.41704,-0.61237 8.18034,0.91724 1.86786,1.620323 3.52702,-0.81363 7.54765,1.276863 2.90502,1.51044 3.87036,3.30086 5.96861,5.29152 2.08643,1.97946 -4.02899,6.59863 -5.28925,6.79096 0,0 0.32555,3.60252 -2.16221,4.26777 -1.7541,0.46906 -6.16159,-1.86105 -7.58277,-2.09083 -3.43676,-0.55566 -6.33942,1.54607 -8.05928,-2.65924 -1.71985,-4.20531 -1.01624,-5.35434 -1.01624,-5.35434 z"
       id="path877"
       sodipodi:nodetypes="csssscsssc" />
    <path
       style="fill:#eb6534;fill-opacity:1;stroke:#000000;stroke-width:0.065;stroke-linecap:butt;stroke-linejoin:miter;stroke-miterlimit:4;stroke-dasharray:none;stroke-opacity:1"
       d="m 92.400546,103.59619 c 0.16543,-3.12571 -1.74302,-10.759614 2.17924,-10.798554 3.92226,-0.0389 8.152784,0.9242 8.046584,3.33019 -0.10619,2.40599 5.95033,1.96552 7.01873,0.44413 1.06839,-1.52138 4.511,-1.37228 5.17362,3.951554 0.66262,5.32383 -2.83599,9.12845 -3.8669,9.507 -1.03092,0.37855 0.97375,5.80921 -1.16842,6.57396 -2.14216,0.76474 -3.05124,0.13401 -6.91218,-1.66016 -3.860944,-1.79416 -4.912614,-5.87663 -6.965054,-5.11452 -2.05244,0.7621 -6.20543,2.49691 -6.64658,-0.52306 -0.44114,-3.01998 3.14096,-5.71054 3.14096,-5.71054 z"
       id="path879" />
    <path
       style="fill:#ffc145;fill-opacity:1;stroke:#000000;stroke-width:0.065;stroke-linecap:butt;stroke-linejoin:miter;stroke-miterlimit:4;stroke-dasharray:none;stroke-opacity:1"
       d="m 123.27426,126.56415 c -1.99786,5.46925 -6.50021,12.99034 -3.10583,15.16267 3.39438,2.17233 4.28109,0.76922 6.6986,4.19697 2.4175,3.42775 9.19182,3.39708 9.47644,1.53073 0.28463,-1.86635 6.08491,-8.91381 8.54659,-5.23767 2.46168,3.67614 13.30013,-2.45546 8.98291,-5.05933 -4.31722,-2.60387 -10.47867,-9.82223 -5.83452,-10.28601 4.64415,-0.46378 1.65223,-8.32227 0.0178,-6.33187 -1.63441,1.9904 -7.67711,0.28633 -9.96754,-3.43698 -2.29043,-3.7233 -8.46115,-0.36676 -8.46115,-0.36676 -2.5486,3.53432 -3.7406,4.1318 -4.72197,3.9714 -0.98137,-0.16039 -8.31172,0.45718 -5.1393,2.80043 3.17241,2.34325 3.50794,3.05642 3.50794,3.05642 z"
       id="path883"
       sodipodi:nodetypes="cssssssssssscc" />
    <path
       style="fill:#eb6534;fill-opacity:1;stroke:#000000;stroke-width:0.065;stroke-linecap:butt;stroke-linejoin:miter;stroke-miterlimit:4;stroke-dasharray:none;stroke-opacity:1"
       d="m 69.352014,109.90185 c -1.27432,3.79639 -2.47714,9.33181 -1.63111,10.26302 0.84603,0.93121 3.6748,2.57464 4.70111,1.8861 1.0263,-0.68855 3.48877,-4.0198 3.48877,-4.0198 0,0 1.85633,-0.89629 2.05363,1.32565 0.19729,2.22193 4.42383,4.36928 5.22453,2.54606 0.80069,-1.82321 1.26224,-7.65394 3.7771,-7.06692 2.51486,0.58702 1.74013,-3.96783 -0.20817,-4.66991 -1.9483,-0.70207 -3.46184,-4.64491 -4.61818,-6.82821 -1.15634,-2.1833 -8.43717,-1.84782 -7.58784,-0.43903 0.84933,1.40878 1.17367,4.00157 -1.28842,3.29554 -2.46209,-0.70603 -9.23353,-1.36447 -6.42894,1.00743 2.8046,2.3719 2.51752,2.70007 2.51752,2.70007 z"
       id="path881" />
    <path
       style="fill:#ffc145;fill-opacity:1;stroke:#000000;stroke-width:0.065;stroke-linecap:butt;stroke-linejoin:miter;stroke-miterlimit:4;stroke-dasharray:none;stroke-opacity:1"
       d="m 56.101429,129.1959 c -1.74857,3.76096 -2.40247,6.14041 1.11664,8.65591 3.5191,2.5155 8.76708,3.55163 9.60474,1.97758 0.83766,-1.57406 2.94882,-6.83186 6.5373,-5.39368 3.588482,1.43818 4.212952,-2.71786 2.173512,-3.59339 -2.039442,-0.87554 -4.392252,-7.08686 -3.048102,-7.71125 1.34416,-0.62438 -3.68315,-6.64551 -4.57835,-4.79545 -0.89519,1.85006 -5.06974,0.18025 -6.56037,-1.25287 -1.49063,-1.43312 -4.589704,-0.95124 -6.61574,0.88363 -2.893493,2.62048 -4.837033,4.34 -1.62552,6.37296 1.931569,1.22272 4.0434,2.60377 2.99589,4.85656 z"
       id="path885"
       sodipodi:nodetypes="csssssssssc" />
  </g>
</svg>
