<?xml version="1.0" encoding="UTF-8" standalone="no"?>
<svg
   xmlns:dc="http://purl.org/dc/elements/1.1/"
   xmlns:cc="http://creativecommons.org/ns#"
   xmlns:rdf="http://www.w3.org/1999/02/22-rdf-syntax-ns#"
   xmlns:svg="http://www.w3.org/2000/svg"
   xmlns="http://www.w3.org/2000/svg"
   xmlns:sodipodi="http://sodipodi.sourceforge.net/DTD/sodipodi-0.dtd"
   xmlns:inkscape="http://www.inkscape.org/namespaces/inkscape"
   viewBox="0 0 3.1842976 3.4622054"
   class="background"
   version="1.1"
   id="svg110"
   sodipodi:docname="tree.svg"
   inkscape:version="1.0.1 (3bc2e813f5, 2020-09-07)"
   width="3.1842976"
   height="3.4622054">
  <style
     id="style118">
.dotodayleaf { 
    fill:#eb6534;
}
.overdueleaf { fill:#962f2f; }
.dolaterleaf { fill:#88ab75; }
.dosoonleaf { fill:#ffc145; }
.tree { fill:#826754; }
.earth { fill:#4a3b30; }
</style>
  <metadata
     id="metadata116">
    <rdf:RDF>
      <cc:Work
         rdf:about="">
        <dc:format>image/svg+xml</dc:format>
        <dc:type
           rdf:resource="http://purl.org/dc/dcmitype/StillImage" />
        <dc:title></dc:title>
      </cc:Work>
    </rdf:RDF>
  </metadata>
  <defs
     id="defs114" />
  <sodipodi:namedview
     pagecolor="#ffffff"
     bordercolor="#666666"
     borderopacity="1"
     objecttolerance="10"
     gridtolerance="10"
     guidetolerance="10"
     inkscape:pageopacity="0"
     inkscape:pageshadow="2"
     inkscape:window-width="1342"
     inkscape:window-height="709"
     id="namedview112"
     showgrid="false"
     inkscape:zoom="59.71666"
     inkscape:cx="0.88937572"
     inkscape:cy="0.96215821"
     inkscape:window-x="10"
     inkscape:window-y="28"
     inkscape:window-maximized="0"
     inkscape:current-layer="svg110" />
  <g
     transform="matrix(6.8654059,0,0,6.8654059,1.823254,3.4622053)"
     id="g108"
     class="tree  dosoonleaf  dolaterleaf  overdueleaf  dotodayleaf">
    <path
       class="tree"
       d="m -0.0470044,0 c 0,0 0.02971834,-0.06869163 0.02038525,-0.13066006 -0.0093331,-0.0619684 -0.03601476,-0.0591758 -0.05373171,-0.0907488 -0.01771694,-0.0315729 -0.0189926,-0.0469474 -0.02955094,-0.0576673 -0.0105583,-0.0107199 -0.0387433,-0.0157895 -0.0474372,-0.020499 -0.008694,-0.004709 -0.0307648,-0.0218626 -0.0307648,-0.0218626 0,0 0.0312321,0.009275 0.0314309,0.009079 1.9881e-4,-1.9606e-4 -0.0178874,-0.0171825 -0.0207889,-0.0195735 -0.002902,-0.002391 -0.0215354,-0.0153039 -0.0215354,-0.0153039 0,0 0.0218232,0.006601 0.0220016,0.006356 1.7837e-4,-2.455e-4 -0.0128434,-0.0189608 -0.0128434,-0.0189608 0,0 0.0176985,0.0124138 0.0212096,0.0157522 0.003511,0.003338 0.0182528,0.0227164 0.0239082,0.0271467 0.005655,0.00443 0.0357642,0.0197982 0.0357709,0.0196041 6.69e-6,-1.9411e-4 -0.030441,-0.0250463 -0.0353413,-0.0320619 -0.0049,-0.007016 -0.0120387,-0.0357703 -0.0120387,-0.0357703 0,0 0.0198153,0.0258617 0.0200914,0.0258199 2.7608e-4,-4.175e-5 -0.004372,-0.0244149 -0.005314,-0.0280547 -9.4197e-4,-0.00364 -0.008427,-0.0250392 -0.008427,-0.0250392 0,0 0.0137754,0.0181677 0.014064,0.018074 2.886e-4,-9.377e-5 7.5438e-4,-0.0228887 7.5438e-4,-0.0228887 0,0 0.007022,0.0204459 0.0079,0.0252105 8.7827e-4,0.004765 -1.121e-5,0.0294714 0.003386,0.036015 0.003397,0.006544 0.0236228,0.0189709 0.03199918,0.0321474 0.0083764,0.0131765 0.02757848,0.0620609 0.02795945,0.0621703 3.8098e-4,1.0942e-4 -0.0058117,-0.0434838 -0.010844,-0.0572545 -0.0050323,-0.0137706 -0.02206313,-0.0355467 -0.02632854,-0.0444669 -0.004265,-0.00892 -0.0120387,-0.0357704 -0.0120387,-0.0357704 0,0 0.01981531,0.0258617 0.02009139,0.0258199 2.7609e-4,-4.175e-5 -0.0043716,-0.0244149 -0.0053136,-0.0280547 -9.4198e-4,-0.00364 -0.0084271,-0.0250392 -0.0084271,-0.0250392 0,0 0.01377537,0.0181677 0.01406397,0.018074 2.8861e-4,-9.377e-5 7.5439e-4,-0.0228887 7.5439e-4,-0.0228887 0,0 0.0070218,0.0204459 0.0079,0.0252105 8.7827e-4,0.004765 0.0014145,0.0291067 0.0033857,0.036015 0.0019713,0.006908 0.01729673,0.0370387 0.01741624,0.0368856 1.1951e-4,-1.5311e-4 -0.0099054,-0.0381556 -0.0097462,-0.0467117 1.5923e-4,-0.008556 0.01128576,-0.036015 0.01128576,-0.036015 0,0 8.298e-4,0.0325697 0.0010777,0.0326982 2.479e-4,1.285e-4 0.01081402,-0.0223216 0.01219137,-0.02582 0.0013773,-0.003498 0.0079,-0.0252105 0.0079,-0.0252105 0,0 4.6578e-4,0.022795 7.5439e-4,0.0228887 2.8861e-4,9.377e-5 0.01406397,-0.018074 0.01406397,-0.018074 0,0 -0.006337,0.0206683 -0.0084271,0.0250392 -0.0020901,0.004371 -0.01733195,0.0238363 -0.01842997,0.0311268 -0.001098,0.007291 0.004922,0.0271976 0.0069921,0.0448164 0.0020701,0.0176188 -0.0013005,0.0447275 0.0069096,0.0735 0.0082102,0.0287725 0.03504558,0.0759145 0.03554334,0.0752768 4.9775e-4,-6.3767e-4 -0.01791411,-0.0635269 -0.01989019,-0.09533 -0.0019761,-0.0318031 0.01222964,-0.0491448 0.0099888,-0.0640234 -0.0022409,-0.0148786 -0.02206313,-0.0355467 -0.02632854,-0.0444669 -0.0042654,-0.00892 -0.01203872,-0.0357704 -0.01203872,-0.0357704 0,0 0.01981531,0.0258617 0.02009139,0.0258199 2.7609e-4,-4.175e-5 -0.0043716,-0.0244149 -0.0053136,-0.0280547 -9.4198e-4,-0.00364 -0.0084271,-0.0250393 -0.0084271,-0.0250393 0,0 0.01377537,0.0181677 0.01406397,0.018074 2.8861e-4,-9.378e-5 7.5439e-4,-0.0228887 7.5439e-4,-0.0228887 0,0 0.0070218,0.0204458 0.0079,0.0252105 8.7827e-4,0.004765 0.0014145,0.0291067 0.0033857,0.036015 0.0019713,0.006908 0.01729673,0.0370387 0.01741624,0.0368856 1.1951e-4,-1.531e-4 -0.00990543,-0.0381556 -0.0097462,-0.0467117 C -0.01112652,-0.38850612 0,-0.415965 0,-0.415965 c 0,0 8.2979722e-4,0.0325697 0.00107769,0.0326982 2.479e-4,1.285e-4 0.01081402,-0.0223216 0.01219137,-0.0258199 0.0013773,-0.003498 0.0079,-0.0252105 0.0079,-0.0252105 0,0 4.6578e-4,0.022795 7.5438e-4,0.0228887 2.8861e-4,9.378e-5 0.01406398,-0.018074 0.01406398,-0.018074 0,0 -0.0063371,0.0206683 -0.0084271,0.0250392 -0.00209,0.004371 -0.01733194,0.0238363 -0.01842997,0.0311268 -0.00109803,0.007291 0.00796042,0.0292329 0.00699214,0.0448164 -9.6828e-4,0.0155835 -0.01416703,0.0664186 -0.01392313,0.066731 2.4389e-4,3.1246e-4 0.02085735,-0.0385952 0.02488033,-0.0526938 0.004023,-0.0140985 0.0030444,-0.0417262 0.0048368,-0.05145 0.0017924,-0.009724 0.01128576,-0.036015 0.01128576,-0.036015 0,0 8.2979e-4,0.0325697 0.0010777,0.0326982 2.479e-4,1.285e-4 0.01081402,-0.0223216 0.01219136,-0.0258199 0.0013774,-0.003498 0.0079,-0.0252105 0.0079,-0.0252105 0,0 4.6578e-4,0.022795 7.5439e-4,0.0228887 2.886e-4,9.378e-5 0.01406397,-0.018074 0.01406397,-0.018074 0,0 -0.006337,0.0206683 -0.0084271,0.0250392 -0.00209,0.004371 -0.01596417,0.0243792 -0.01842998,0.0311268 -0.0024658,0.006748 -0.0077775,0.0401317 -0.0075908,0.0400781 1.8668e-4,-5.361e-5 0.01546718,-0.0370628 0.01957162,-0.0435192 0.0041044,-0.006456 0.02025872,-0.0191321 0.02239942,-0.0225031 0.0021407,-0.003371 0.0079,-0.0252105 0.0079,-0.0252105 0,0 4.6578e-4,0.022795 7.5439e-4,0.0228887 2.886e-4,9.377e-5 0.01406397,-0.018074 0.01406397,-0.018074 0,0 -0.006026,0.0216016 -0.008427,0.0250392 -0.0024012,0.003438 -0.02474218,0.0223482 -0.0247389,0.0224433 3.28e-6,9.512e-5 0.02186903,-0.0117022 0.0250396,-0.0137229 0.003171,-0.002021 0.0212096,-0.0157522 0.0212096,-0.0157522 0,0 -0.0130217,0.0187153 -0.0128434,0.0189608 1.7837e-4,2.455e-4 0.0220016,-0.006356 0.0220016,-0.006356 0,0 -0.0172753,0.0129962 -0.0215354,0.0153038 -0.00426,0.002308 -0.02803247,0.009097 -0.03320605,0.0143493 -0.0051736,0.005253 -0.01200436,0.0248964 -0.02068566,0.0403671 -0.0086813,0.0154707 -0.03303898,0.0331596 -0.0376122,0.0635241 -0.0045732,0.0303645 0.0056476,0.0180808 0.01426968,0.091462 C 0.04152513,-0.07661876 0.0470044,0 0.0470044,0"
       id="path4" />
    <g
       id="g106">
      <g
         transform="translate(0.09461285,-0.41043392)"
         id="g8">
        <path
           class="overdueleaf"
           transform="scale(-0.07)"
           d="M 0,1 C -0.5,0 -0.1,0 0,0 0.1,0 0.5,0 0,1"
           id="path6" />
      </g>
      <g
         transform="rotate(-72,-0.33846307,-0.03666975)"
         id="g12">
        <path
           class="dotodayleaf"
           transform="scale(-0.07)"
           d="M 0,1 C -0.5,0 -0.1,0 0,0 0.1,0 0.5,0 0,1"
           id="path10" />
      </g>
      <g
         transform="rotate(-36,-0.67889929,-0.14392725)"
         id="g16">
        <path
           class="dotodayleaf"
           transform="scale(-0.07)"
           d="M 0,1 C -0.5,0 -0.1,0 0,0 0.1,0 0.5,0 0,1"
           id="path14" />
      </g>
      <g
         transform="rotate(-36,-0.67889929,-0.03892725)"
         id="g20">
        <path
           class="dotodayleaf"
           transform="scale(-0.07)"
           d="M 0,1 C -0.5,0 -0.1,0 0,0 0.1,0 0.5,0 0,1"
           id="path18" />
      </g>
      <g
         transform="translate(0.0643713,-0.42026)"
         id="g24">
        <path
           class="dosoonleaf"
           transform="scale(-0.07)"
           d="M 0,1 C -0.5,0 -0.1,0 0,0 0.1,0 0.5,0 0,1"
           id="path22" />
      </g>
      <g
         transform="rotate(-36,-0.67889929,0.03457275)"
         id="g28">
        <path
           class="dosoonleaf"
           transform="scale(-0.07)"
           d="M 0,1 C -0.5,0 -0.1,0 0,0 0.1,0 0.5,0 0,1"
           id="path26" />
      </g>
      <g
         transform="translate(0.02116909,-0.43429725)"
         id="g32">
        <path
           class="dosoonleaf"
           transform="scale(-0.07)"
           d="M 0,1 C -0.5,0 -0.1,0 0,0 0.1,0 0.5,0 0,1"
           id="path30" />
      </g>
      <g
         transform="translate(-0.04054837,-0.41424403)"
         id="g36">
        <path
           class="dosoonleaf"
           transform="scale(-0.07)"
           d="M 0,1 C -0.5,0 -0.1,0 0,0 0.1,0 0.5,0 0,1"
           id="path34" />
      </g>
      <g
         transform="rotate(36,0.6577302,-0.0052755)"
         id="g40">
        <path
           class="dosoonleaf"
           transform="scale(-0.07)"
           d="M 0,1 C -0.5,0 -0.1,0 0,0 0.1,0 0.5,0 0,1"
           id="path38" />
      </g>
      <g
         transform="rotate(-72,-0.31526244,-0.0312675)"
         id="g44">
        <path
           class="dosoonleaf"
           transform="scale(-0.07)"
           d="M 0,1 C -0.5,0 -0.1,0 0,0 0.1,0 0.5,0 0,1"
           id="path42" />
      </g>
      <g
         transform="rotate(-36,-0.64010432,-0.1205175)"
         id="g48">
        <path
           class="dosoonleaf"
           transform="scale(-0.07)"
           d="M 0,1 C -0.5,0 -0.1,0 0,0 0.1,0 0.5,0 0,1"
           id="path46" />
      </g>
      <g
         transform="rotate(-36,-0.64010432,-0.0155175)"
         id="g52">
        <path
           class="dosoonleaf"
           transform="scale(-0.07)"
           d="M 0,1 C -0.5,0 -0.1,0 0,0 0.1,0 0.5,0 0,1"
           id="path50" />
      </g>
      <g
         transform="translate(0.04320222,-0.40192775)"
         id="g56">
        <path
           class="dosoonleaf"
           transform="scale(-0.07)"
           d="M 0,1 C -0.5,0 -0.1,0 0,0 0.1,0 0.5,0 0,1"
           id="path54" />
      </g>
      <g
         transform="rotate(-36,-0.64010432,0.0579825)"
         id="g60">
        <path
           class="dosoonleaf"
           transform="scale(-0.07)"
           d="M 0,1 C -0.5,0 -0.1,0 0,0 0.1,0 0.5,0 0,1"
           id="path58" />
      </g>
      <g
         transform="translate(0,-0.415965)"
         id="g64">
        <path
           class="dosoonleaf"
           transform="scale(-0.07)"
           d="M 0,1 C -0.5,0 -0.1,0 0,0 0.1,0 0.5,0 0,1"
           id="path62" />
      </g>
      <g
         transform="translate(-0.06171745,-0.39591178)"
         id="g68">
        <path
           class="dosoonleaf"
           transform="scale(-0.07)"
           d="M 0,1 C -0.5,0 -0.1,0 0,0 0.1,0 0.5,0 0,1"
           id="path66" />
      </g>
      <g
         transform="rotate(36,0.67889929,-0.03441225)"
         id="g72">
        <path
           class="dosoonleaf"
           transform="scale(-0.07)"
           d="M 0,1 C -0.5,0 -0.1,0 0,0 0.1,0 0.5,0 0,1"
           id="path70" />
      </g>
      <g
         transform="rotate(-36,-0.64865774,0.11221167)"
         id="g76">
        <path
           class="dosoonleaf"
           transform="scale(-0.07)"
           d="M 0,1 C -0.5,0 -0.1,0 0,0 0.1,0 0.5,0 0,1"
           id="path74" />
      </g>
      <g
         transform="translate(-0.03024155,-0.43134942)"
         id="g80">
        <path
           class="dosoonleaf"
           transform="scale(-0.07)"
           d="M 0,1 C -0.5,0 -0.1,0 0,0 0.1,0 0.5,0 0,1"
           id="path78" />
      </g>
      <g
         transform="translate(-0.091959,-0.41129621)"
         id="g84">
        <path
           class="dosoonleaf"
           transform="scale(-0.07)"
           d="M 0,1 C -0.5,0 -0.1,0 0,0 0.1,0 0.5,0 0,1"
           id="path82" />
      </g>
      <g
         transform="rotate(36,0.67889929,-0.08586225)"
         id="g88">
        <path
           class="dosoonleaf"
           transform="scale(-0.07)"
           d="M 0,1 C -0.5,0 -0.1,0 0,0 0.1,0 0.5,0 0,1"
           id="path86" />
      </g>
      <g
         transform="translate(-0.13516122,-0.39725896)"
         id="g92">
        <path
           class="dosoonleaf"
           transform="scale(-0.07)"
           d="M 0,1 C -0.5,0 -0.1,0 0,0 0.1,0 0.5,0 0,1"
           id="path90" />
      </g>
      <g
         transform="rotate(36,0.67889929,-0.15936225)"
         id="g96">
        <path
           class="dosoonleaf"
           transform="scale(-0.07)"
           d="M 0,1 C -0.5,0 -0.1,0 0,0 0.1,0 0.5,0 0,1"
           id="path94" />
      </g>
      <g
         transform="rotate(36,0.61718184,-0.24430903)"
         id="g100">
        <path
           class="dosoonleaf"
           transform="scale(-0.07)"
           d="M 0,1 C -0.5,0 -0.1,0 0,0 0.1,0 0.5,0 0,1"
           id="path98" />
      </g>
      <g
         transform="rotate(72,0.32391235,-0.09688725)"
         id="g104">
        <path
           class="dosoonleaf"
           transform="scale(-0.07)"
           d="M 0,1 C -0.5,0 -0.1,0 0,0 0.1,0 0.5,0 0,1"
           id="path102" />
      </g>
    </g>
  </g>
</svg>
